<?xml version="1.0" standalone="no"?>
<!DOCTYPE svg PUBLIC "-//W3C//DTD SVG 20010904//EN"
 "http://www.w3.org/TR/2001/REC-SVG-20010904/DTD/svg10.dtd">
<svg version="1.0" xmlns="http://www.w3.org/2000/svg"
 width="600.000000pt" height="600.000000pt" viewBox="0 0 600.000000 600.000000"
 preserveAspectRatio="xMidYMid meet">

<g transform="translate(0.000000,600.000000) scale(0.100000,-0.100000)"
fill="#000000" stroke="none">
<path d="M3570 5351 c-143 -47 -198 -134 -134 -210 28 -34 63 -40 88 -16 20
20 10 44 -20 51 -25 6 -31 19 -14 29 19 12 48 -5 60 -35 7 -17 11 -56 8 -93
-3 -51 -10 -71 -37 -109 -86 -119 -292 -152 -508 -79 -267 89 -479 111 -648
66 -62 -17 -316 -141 -408 -199 -74 -47 -225 -182 -270 -242 -61 -80 -81 -143
-81 -259 -3 -427 75 -753 209 -881 12 -11 27 -43 33 -70 6 -27 18 -84 28 -126
l17 -77 -41 -48 c-22 -27 -41 -55 -42 -63 -4 -28 0 -40 15 -40 19 0 19 -19 0
-44 -25 -33 -17 -106 11 -106 18 0 17 -4 -1 -39 -11 -22 -12 -36 -3 -64 8 -25
8 -48 1 -75 -7 -28 -7 -44 0 -51 7 -7 5 -22 -7 -49 -9 -21 -21 -62 -26 -92 -4
-30 -11 -66 -15 -80 -7 -24 -7 -24 9 -5 15 19 15 19 11 -10 -3 -16 -1 -37 4
-45 9 -13 14 -13 32 -2 33 21 32 9 -6 -39 -32 -42 -34 -48 -24 -82 11 -42 35
-49 64 -17 26 28 38 25 33 -10 -3 -20 0 -30 9 -30 8 0 13 -13 13 -39 0 -43 18
-65 45 -55 16 7 18 2 13 -58 -6 -68 4 -105 21 -80 6 10 10 7 15 -12 5 -21 10
-25 22 -18 22 12 64 -8 64 -30 0 -20 20 -35 20 -16 1 7 8 0 16 -16 9 -15 13
-38 11 -50 -5 -18 -4 -19 5 -5 11 15 14 15 44 -1 24 -14 34 -16 44 -7 11 12 9
-6 -7 -65 -3 -13 0 -16 11 -12 11 4 22 -8 38 -43 16 -33 28 -48 39 -45 9 2 26
-8 36 -22 11 -14 32 -28 46 -31 23 -6 25 -11 20 -37 -5 -23 -2 -34 12 -45 29
-20 43 -16 61 19 13 25 18 29 23 17 3 -9 14 -15 24 -13 9 1 17 -4 17 -11 0
-28 29 -39 75 -28 36 8 47 7 57 -4 6 -8 23 -13 37 -12 31 2 62 -9 77 -29 8
-10 20 -13 40 -8 29 7 36 7 89 2 48 -5 113 -39 144 -77 16 -20 23 -22 38 -13
10 6 20 24 23 40 3 15 10 26 15 25 6 -2 16 -6 24 -9 7 -3 22 0 33 7 11 7 37
21 59 33 22 11 46 33 55 49 17 34 55 46 91 30 15 -7 29 -8 32 -3 3 5 16 12 29
16 12 4 22 12 22 17 0 5 7 9 15 9 11 0 15 12 15 45 0 25 5 45 10 45 6 0 10 -7
10 -15 0 -8 6 -15 13 -15 24 0 37 24 37 67 0 39 2 43 25 43 20 0 27 6 32 30 3
17 14 35 24 40 10 6 19 22 21 37 2 16 8 27 15 26 15 -3 36 33 28 47 -3 5 -1
11 4 14 5 4 12 2 16 -4 11 -18 25 0 25 31 0 16 3 28 8 28 29 -5 34 3 32 49 -3
61 -2 77 7 69 11 -12 33 15 33 41 0 13 8 30 17 37 12 9 19 34 23 91 4 44 8 71
8 62 2 -21 23 -23 40 -6 18 18 15 49 -9 104 -15 32 -18 49 -10 52 6 2 11 21
11 42 0 21 5 42 11 46 7 4 8 20 4 43 -4 20 -6 54 -5 76 5 99 2 180 -8 309 -10
122 -15 144 -37 176 -23 33 -25 46 -25 138 0 111 18 172 52 172 9 0 25 11 33
24 9 13 24 26 33 28 13 4 21 29 36 114 10 60 24 145 32 189 7 44 16 109 19
145 16 202 15 198 49 218 77 47 124 101 171 199 69 144 87 232 75 363 -11 125
-55 274 -102 345 -18 28 -69 86 -113 130 -85 85 -197 153 -300 181 -59 16
-280 27 -315 15z m-773 -893 c51 -6 91 -14 88 -18 -3 -4 10 -13 28 -19 47 -18
120 -53 137 -67 34 -28 380 -193 445 -211 94 -28 199 -43 295 -43 l79 0 6 -43
c8 -54 0 -823 -9 -857 -3 -14 -8 -95 -11 -180 -3 -85 -8 -191 -11 -235 -4 -44
-6 -91 -5 -105 0 -14 1 -35 1 -48 0 -13 4 -41 9 -63 7 -30 5 -50 -6 -76 -14
-35 -14 -47 2 -87 7 -15 5 -17 -13 -12 -29 9 -49 -27 -33 -60 6 -15 7 -25 1
-29 -6 -4 -10 -17 -10 -31 0 -14 -4 -23 -9 -19 -15 9 -41 -24 -41 -51 0 -14
-4 -23 -9 -20 -15 9 -39 -4 -44 -23 -2 -10 2 -32 9 -50 15 -35 13 -37 -17 -18
-18 10 -23 9 -40 -12 -11 -13 -18 -30 -15 -37 3 -7 7 -30 11 -51 5 -33 4 -35
-6 -16 -15 28 -35 36 -60 23 -20 -11 -35 -52 -25 -68 3 -5 -4 -12 -15 -15 -19
-5 -21 -11 -17 -49 5 -44 5 -44 -23 -40 -32 5 -43 -12 -54 -80 -5 -33 -8 -36
-24 -27 -21 14 -81 -13 -88 -39 -2 -10 -16 -22 -30 -29 -22 -11 -28 -10 -43 9
-20 26 -65 19 -75 -12 -7 -24 -52 -37 -68 -21 -16 16 -47 13 -54 -6 -5 -14 -8
-13 -14 5 -10 27 -33 28 -57 4 -18 -18 -20 -18 -47 4 -21 17 -36 21 -65 17
-22 -3 -40 -1 -44 6 -10 15 -41 14 -55 -3 -19 -22 -51 -8 -51 23 0 15 -5 32
-12 39 -17 17 -57 15 -64 -3 -10 -25 -23 -17 -26 18 -2 22 -10 35 -26 42 -12
5 -25 18 -28 28 -3 9 -23 26 -45 37 -21 11 -39 25 -39 30 0 6 -13 10 -30 10
-19 0 -33 7 -40 20 -6 11 -20 20 -30 20 -11 0 -20 6 -20 13 0 8 -25 36 -55 64
-30 28 -55 58 -55 67 0 8 -14 26 -31 38 -16 12 -41 37 -55 55 -20 26 -23 37
-14 52 13 26 3 50 -26 62 -13 4 -24 16 -24 25 0 9 -11 24 -24 35 -13 10 -29
39 -36 64 -8 27 -18 45 -27 45 -11 0 -13 5 -8 18 19 44 18 73 -5 89 -17 12
-21 22 -16 46 4 20 1 36 -9 47 -14 15 -13 21 10 61 28 50 32 94 9 107 -15 8
-15 12 0 40 22 42 20 68 -5 86 -21 14 -21 16 -5 40 19 30 21 57 4 74 -9 9 -9
20 1 47 15 41 7 75 -18 75 -16 0 -19 20 -31 188 -14 203 -2 614 22 780 l13 84
71 68 c171 162 392 211 751 168z"/>
<path d="M2590 4173 c-14 -9 -50 -38 -81 -63 -30 -25 -70 -56 -89 -70 -42 -32
-87 -68 -120 -99 -46 -43 -163 -121 -182 -121 -32 0 -43 -43 -24 -92 61 -155
194 -173 418 -57 98 51 236 182 281 267 28 52 28 54 13 98 -40 119 -146 186
-216 137z"/>
<path d="M3374 3966 c-139 -29 -171 -40 -266 -87 -83 -42 -90 -51 -91 -130 -1
-58 13 -85 61 -122 33 -26 42 -28 86 -22 26 3 78 17 115 31 82 31 327 75 402
73 31 -1 61 1 67 5 13 7 32 93 32 142 0 19 -6 49 -14 67 -12 30 -20 35 -84 50
-93 22 -174 21 -308 -7z"/>
<path d="M2504 3446 c-55 -24 -65 -64 -62 -238 4 -143 5 -155 28 -190 49 -73
105 -82 144 -23 27 40 31 75 31 236 0 163 -7 188 -60 214 -39 18 -41 18 -81 1z
m36 -52 c10 -11 11 -25 4 -52 -7 -30 -13 -37 -34 -37 -22 0 -25 5 -28 38 -5
58 29 87 58 51z"/>
<path d="M3265 3438 c-36 -31 -44 -79 -45 -241 0 -173 11 -222 53 -236 60 -22
94 -7 126 56 15 29 15 339 0 382 -11 33 -52 61 -88 61 -11 0 -32 -10 -46 -22z
m43 -52 c2 -10 1 -33 -3 -52 -4 -25 -11 -34 -25 -34 -17 0 -20 7 -20 48 0 27
3 52 7 56 12 12 38 1 41 -18z"/>
<path d="M2491 2735 c-17 -20 -31 -40 -31 -45 0 -19 19 -19 42 0 l25 19 28
-29 c32 -34 98 -67 170 -86 66 -18 242 -17 330 1 90 19 225 66 225 78 0 5 -10
6 -22 3 -266 -77 -487 -82 -623 -16 -81 39 -102 57 -87 72 18 18 14 38 -7 38
-10 0 -33 -16 -50 -35z"/>
<path d="M2842 2458 c3 -20 10 -23 61 -26 51 -3 57 -2 57 16 0 20 -33 32 -92
32 -25 0 -29 -4 -26 -22z"/>
<path d="M2823 2374 c-19 -10 -36 -28 -42 -46 -28 -79 3 -178 54 -178 19 0 28
-8 39 -35 23 -54 86 -61 105 -12 8 19 15 23 35 20 21 -4 28 1 45 36 40 78 22
173 -42 211 -40 25 -147 27 -194 4z"/>
<path d="M1642 3208 c-6 -6 -12 -20 -12 -29 0 -9 -6 -22 -13 -28 -16 -13 -42
-113 -34 -132 3 -8 6 -2 6 13 1 15 6 30 12 34 6 3 22 31 35 60 22 50 26 54 51
48 65 -14 95 -27 117 -51 14 -14 29 -22 35 -18 17 10 -40 63 -76 71 -15 4 -35
12 -43 20 -23 20 -64 26 -78 12z"/>
<path d="M1845 3090 c-3 -5 -1 -10 4 -10 6 0 11 5 11 10 0 6 -2 10 -4 10 -3 0
-8 -4 -11 -10z"/>
<path d="M2297 1526 c-9 -9 -19 -33 -22 -54 -11 -63 -16 -73 -41 -84 -22 -10
-22 -12 -6 -24 10 -7 21 -9 28 -3 6 5 13 6 17 3 9 -10 24 28 37 93 15 74 11
93 -13 69z"/>
<path d="M1900 1296 c-311 -106 -441 -166 -573 -262 -34 -25 -75 -53 -90 -62
-105 -63 -246 -191 -268 -244 -13 -31 -12 -31 52 -90 302 -278 619 -478 952
-602 l97 -36 315 0 314 0 4 43 4 42 1 -42 2 -43 580 0 580 0 0 24 c0 31 -16
42 -38 24 -20 -15 -59 -38 -67 -38 -3 0 -5 11 -5 25 0 14 -3 24 -7 23 -20 -7
-6 21 31 66 23 27 40 53 38 59 -1 5 4 20 13 33 9 14 13 29 10 35 -4 5 -8 34
-9 64 -3 49 -1 55 17 55 21 0 107 -70 190 -155 27 -27 47 -42 43 -32 -3 11 -2
16 5 12 5 -4 8 -14 5 -23 -3 -10 3 -28 13 -42 l19 -24 109 55 c137 70 284 162
408 255 146 109 345 288 345 310 0 17 -77 83 -141 120 -303 175 -577 308 -810
394 -97 36 -368 114 -375 108 -2 -3 2 -18 11 -34 20 -38 19 -80 -4 -129 -52
-115 -262 -209 -565 -252 -158 -22 -410 -13 -567 20 -228 48 -420 142 -464
227 -28 54 -12 158 27 173 9 4 9 6 -2 6 -8 0 -98 -28 -200 -63z"/>
</g>
</svg>
